<svg width="352" height="209" viewBox="0 0 352 209" fill="none" xmlns="http://www.w3.org/2000/svg">
<rect width="352" height="209" fill="black"/>
<path d="M209.281 128.952C209.281 137.386 209.281 145.819 209.281 154.508C204.266 151.722 199.732 148.853 195.18 145.438C194.694 145.09 194.208 144.742 193.708 144.383C193.279 144.066 192.851 143.749 192.41 143.422C190.445 142.574 189.395 142.907 187.376 143.556C185.545 144.555 185.545 144.555 183.742 145.837C183.072 146.293 182.402 146.748 181.712 147.218C181.021 147.696 180.33 148.174 179.618 148.667C178.241 149.612 176.863 150.555 175.483 151.496C174.875 151.916 174.267 152.336 173.641 152.768C172.043 153.778 172.043 153.778 169.852 154.508C169.541 152.543 169.541 152.543 169.852 150.127C171.52 148.671 172.95 147.635 174.827 146.522C175.322 146.212 175.818 145.903 176.329 145.584C177.337 144.956 178.348 144.333 179.362 143.717C182.026 142.071 184.59 140.266 187.179 138.504C189.199 137.541 189.687 137.727 191.757 138.444C193.295 139.332 193.295 139.332 194.917 140.432C195.501 140.825 196.084 141.218 196.686 141.623C197.288 142.035 197.89 142.447 198.511 142.871C199.125 143.286 199.738 143.7 200.371 144.127C201.883 145.15 203.393 146.176 204.9 147.206C204.907 146.731 204.914 146.256 204.921 145.767C204.96 143.614 205.021 141.463 205.082 139.312C205.093 138.564 205.103 137.816 205.114 137.045C205.137 136.328 205.161 135.61 205.185 134.871C205.2 134.209 205.216 133.548 205.231 132.866C205.63 131.143 205.63 131.143 207.073 129.815C208.551 128.952 208.551 128.952 209.281 128.952Z" fill="#F2AA7E"/>
<path d="M262.634 45.119C262.634 66.1997 262.634 87.2805 262.634 109C250.098 102.035 238.766 94.8634 227.386 86.328C226.172 85.4574 224.958 84.5869 223.707 83.69C222.636 82.8974 221.565 82.1049 220.461 81.2882C215.55 79.1697 212.927 80.0024 207.879 81.6224C203.303 84.1206 203.303 84.1206 198.796 87.3261C197.121 88.4648 195.446 89.6036 193.72 90.7768C191.993 91.972 190.266 93.1672 188.487 94.3986C185.045 96.7617 181.599 99.1194 178.149 101.471C176.63 102.521 175.111 103.57 173.546 104.651C169.551 107.175 169.551 107.175 164.075 109C163.298 104.088 163.298 104.088 164.075 98.049C168.243 94.4097 171.82 91.8197 176.509 89.0372C177.749 88.2636 178.988 87.49 180.265 86.6929C182.783 85.1227 185.311 83.5667 187.847 82.0253C194.506 77.9104 200.916 73.3996 207.387 68.996C212.436 66.5888 213.655 67.0526 218.83 68.8462C222.675 71.064 222.675 71.064 226.73 73.8156C228.189 74.7978 229.647 75.7801 231.15 76.7922C232.656 77.8215 234.162 78.8508 235.713 79.9113C237.247 80.9477 238.781 81.9841 240.362 83.0519C244.142 85.608 247.916 88.1737 251.683 90.7483C251.7 89.5606 251.717 88.3729 251.735 87.1492C251.833 81.7693 251.986 76.3922 252.14 71.0136C252.166 69.1444 252.191 67.2751 252.218 65.3492C252.277 63.5552 252.336 61.7612 252.396 59.9129C252.435 58.2593 252.473 56.6058 252.512 54.9021C253.509 50.5945 253.509 50.5945 257.114 47.2744C260.809 45.119 260.809 45.119 262.634 45.119Z" fill="#F2AA7E"/>
<path d="M101 45C113.537 51.9648 124.868 59.1366 136.249 67.6721C138.07 68.9778 138.07 68.9778 139.927 70.31C140.999 71.1026 142.07 71.8952 143.173 72.7118C148.107 74.8402 150.679 74.0179 155.755 72.3776C160.745 69.6692 160.745 69.6692 165.765 66.2105C167.621 64.9812 169.478 63.7519 171.39 62.4853C173.308 61.1948 175.225 59.9043 177.201 58.5747C181.03 56.0214 184.861 53.4712 188.694 50.9247C190.385 49.7893 192.076 48.654 193.818 47.4842C197.734 45 197.734 45 199.559 45C200.163 49.9805 200.163 49.9805 199.559 55.951C195.515 60.0715 195.515 60.0715 189.899 63.872C188.908 64.5495 187.916 65.227 186.895 65.9251C184.798 67.3462 182.687 68.7488 180.566 70.134C177.326 72.2564 174.139 74.444 170.952 76.6446C155.456 87.0476 155.456 87.0475 149.192 86.7659C144.508 85.0448 140.846 82.9998 136.726 80.1845C135.415 79.2997 134.104 78.4149 132.753 77.5033C131.121 76.3765 129.489 75.2496 127.807 74.0887C122.575 70.5125 117.342 66.9363 111.951 63.2517C111.349 77.1048 110.746 90.9578 110.126 105.231C107.114 106.435 104.103 107.64 101 108.881C101 87.8003 101 66.7195 101 45Z" fill="#F2AA7E"/>
<path d="M82 128.952C87.0153 131.739 91.5484 134.608 96.1012 138.022C96.8297 138.545 96.8297 138.545 97.5729 139.078C98.0014 139.395 98.4299 139.712 98.8714 140.038C100.845 140.89 101.874 140.561 103.905 139.905C105.901 138.821 105.901 138.821 107.909 137.438C108.652 136.946 109.394 136.454 110.16 135.947C110.927 135.431 111.694 134.915 112.484 134.383C114.016 133.362 115.548 132.341 117.082 131.323C117.758 130.868 118.435 130.414 119.132 129.946C120.698 128.952 120.698 128.952 121.429 128.952C121.67 130.945 121.67 130.945 121.429 133.333C119.811 134.982 119.811 134.982 117.564 136.502C117.167 136.773 116.771 137.044 116.362 137.323C115.523 137.892 114.679 138.453 113.83 139.007C112.534 139.856 111.259 140.731 109.984 141.612C103.785 145.773 103.785 145.773 101.279 145.661C99.4052 144.972 97.9402 144.154 96.2923 143.028C95.7677 142.674 95.2432 142.32 94.7027 141.955C94.0498 141.505 93.3969 141.054 92.7242 140.589C90.6309 139.159 88.5377 137.728 86.381 136.254C86.14 141.796 85.899 147.338 85.6508 153.048C84.446 153.53 83.2413 154.011 82 154.508C82 146.075 82 137.641 82 128.952Z" fill="#F2AA7E"/>
<path d="M133.83 131.882C133.83 132.316 133.744 132.721 133.573 133.097C133.413 133.474 133.191 133.805 132.906 134.09C132.621 134.364 132.284 134.586 131.896 134.757C131.52 134.917 131.115 134.997 130.681 134.997C130.248 134.997 129.837 134.917 129.449 134.757C129.072 134.586 128.742 134.364 128.456 134.09C128.183 133.805 127.96 133.474 127.789 133.097C127.629 132.721 127.549 132.316 127.549 131.882C127.549 131.46 127.629 131.061 127.789 130.685C127.96 130.297 128.183 129.966 128.456 129.692C128.742 129.407 129.072 129.184 129.449 129.025C129.837 128.853 130.248 128.768 130.681 128.768C131.115 128.768 131.52 128.853 131.896 129.025C132.284 129.184 132.621 129.407 132.906 129.692C133.191 129.966 133.413 130.297 133.573 130.685C133.744 131.061 133.83 131.46 133.83 131.882ZM133.026 155.19H128.319V136.862H133.026V155.19ZM141.274 155.19H136.602V136.862H137.732L139.272 139.036C140.025 138.351 140.88 137.826 141.839 137.461C142.797 137.085 143.79 136.897 144.816 136.897H148.941V141.551H144.816C144.326 141.551 143.864 141.643 143.43 141.825C142.997 142.008 142.62 142.259 142.301 142.578C141.981 142.898 141.73 143.274 141.548 143.708C141.365 144.141 141.274 144.603 141.274 145.094V155.19ZM155.786 155.19H151.114V136.862H152.244L153.784 139.036C154.537 138.351 155.392 137.826 156.351 137.461C157.309 137.085 158.302 136.897 159.328 136.897H163.453V141.551H159.328C158.838 141.551 158.376 141.643 157.942 141.825C157.509 142.008 157.132 142.259 156.813 142.578C156.493 142.898 156.242 143.274 156.06 143.708C155.877 144.141 155.786 144.603 155.786 145.094V155.19Z" fill="white"/>
<path d="M223.229 148.516C223.411 148.573 223.594 148.613 223.776 148.636C223.959 148.648 224.141 148.653 224.324 148.653C224.78 148.653 225.219 148.591 225.642 148.465C226.064 148.34 226.457 148.163 226.822 147.935C227.199 147.695 227.53 147.41 227.815 147.079C228.112 146.737 228.351 146.36 228.534 145.949L231.956 149.389C231.523 150.005 231.021 150.559 230.45 151.049C229.891 151.54 229.281 151.956 228.619 152.298C227.969 152.641 227.279 152.897 226.549 153.068C225.83 153.251 225.088 153.342 224.324 153.342C223.035 153.342 221.82 153.103 220.679 152.624C219.549 152.144 218.557 151.477 217.701 150.621C216.857 149.766 216.189 148.75 215.699 147.575C215.208 146.389 214.963 145.088 214.963 143.673C214.963 142.224 215.208 140.901 215.699 139.703C216.189 138.505 216.857 137.484 217.701 136.64C218.557 135.796 219.549 135.14 220.679 134.672C221.82 134.204 223.035 133.97 224.324 133.97C225.088 133.97 225.836 134.062 226.566 134.244C227.296 134.427 227.986 134.689 228.636 135.031C229.298 135.374 229.914 135.796 230.485 136.298C231.055 136.788 231.557 137.342 231.991 137.958L223.229 148.516ZM225.624 138.882C225.408 138.802 225.191 138.75 224.974 138.728C224.769 138.705 224.552 138.693 224.324 138.693C223.685 138.693 223.08 138.813 222.51 139.053C221.951 139.281 221.46 139.612 221.038 140.045C220.627 140.479 220.302 141.004 220.063 141.62C219.823 142.224 219.703 142.909 219.703 143.673C219.703 143.844 219.709 144.038 219.72 144.255C219.743 144.472 219.772 144.694 219.806 144.923C219.852 145.139 219.903 145.35 219.96 145.556C220.017 145.761 220.091 145.944 220.183 146.103L225.624 138.882ZM251.962 153H250.832L249.018 150.484C248.573 150.884 248.1 151.26 247.598 151.614C247.107 151.956 246.588 152.258 246.04 152.521C245.493 152.772 244.928 152.971 244.346 153.12C243.776 153.268 243.194 153.342 242.601 153.342C241.311 153.342 240.096 153.125 238.956 152.692C237.826 152.258 236.834 151.631 235.978 150.81C235.134 149.977 234.466 148.961 233.976 147.763C233.485 146.565 233.24 145.202 233.24 143.673C233.24 142.247 233.485 140.941 233.976 139.754C234.466 138.557 235.134 137.53 235.978 136.674C236.834 135.818 237.826 135.157 238.956 134.689C240.096 134.21 241.311 133.97 242.601 133.97C243.194 133.97 243.781 134.044 244.363 134.193C244.945 134.341 245.51 134.546 246.058 134.809C246.605 135.071 247.124 135.379 247.615 135.733C248.117 136.087 248.585 136.469 249.018 136.879L250.832 134.706H251.962V153ZM247.255 143.673C247.255 143.034 247.13 142.418 246.879 141.825C246.639 141.22 246.308 140.69 245.886 140.234C245.464 139.766 244.968 139.395 244.398 139.121C243.839 138.836 243.24 138.693 242.601 138.693C241.962 138.693 241.357 138.802 240.787 139.019C240.228 139.235 239.737 139.555 239.315 139.977C238.904 140.399 238.579 140.924 238.339 141.551C238.1 142.167 237.98 142.875 237.98 143.673C237.98 144.472 238.1 145.185 238.339 145.813C238.579 146.429 238.904 146.948 239.315 147.37C239.737 147.792 240.228 148.111 240.787 148.328C241.357 148.545 241.962 148.653 242.601 148.653C243.24 148.653 243.839 148.516 244.398 148.243C244.968 147.957 245.464 147.587 245.886 147.13C246.308 146.662 246.639 146.132 246.879 145.539C247.13 144.934 247.255 144.312 247.255 143.673ZM260.21 153H255.538V134.672H256.668L258.208 136.845C258.961 136.161 259.816 135.636 260.775 135.271C261.733 134.894 262.726 134.706 263.752 134.706H267.877V139.361H263.752C263.262 139.361 262.8 139.452 262.366 139.635C261.933 139.817 261.556 140.068 261.237 140.388C260.917 140.707 260.666 141.084 260.484 141.517C260.301 141.951 260.21 142.413 260.21 142.903V153Z" fill="#FEFEFE"/>
</svg>